<svg width="146" height="85" viewBox="0 0 146 85" fill="none" xmlns="http://www.w3.org/2000/svg">
<path d="M21.015 84.9H5.51504C3.91504 84.9 2.74837 84.5333 2.01504 83.8C1.28171 83.0667 0.915039 81.9 0.915039 80.3V15.5C0.915039 14.6333 1.01504 13.9 1.21504 13.3C1.48171 12.7 1.84837 12.2 2.31504 11.8L15.215 0.9C15.5484 0.633333 15.9817 0.433332 16.515 0.299996C17.115 0.0999987 17.7484 0 18.415 0H63.015C64.615 0 65.7817 0.366666 66.515 1.1C67.2484 1.83333 67.615 3 67.615 4.6V16.5C67.615 17.3667 67.4817 18.1 67.215 18.7C67.015 19.3 66.6817 19.8 66.215 20.2L55.015 29.5C56.5484 29.5 57.6817 29.8667 58.415 30.6C59.1484 31.3333 59.515 32.5 59.515 34.1V46.1C59.515 46.9667 59.3817 47.7 59.115 48.3C58.915 48.9 58.5817 49.4 58.115 49.8L45.115 60.6C44.8484 60.8667 44.415 61.1 43.815 61.3C43.2817 61.5 42.6817 61.6 42.015 61.6H38.515V69.4C38.515 70.2667 38.3817 71 38.115 71.6C37.915 72.2 37.5817 72.7 37.115 73.1L24.115 83.9C23.8484 84.1667 23.415 84.4 22.815 84.6C22.2817 84.8 21.6817 84.9 21.015 84.9ZM33.915 73C35.1817 73 36.0817 72.7333 36.615 72.2C37.215 71.6 37.515 70.6667 37.515 69.4V49.7H54.915C56.1817 49.7 57.0817 49.4333 57.615 48.9C58.215 48.3 58.515 47.3667 58.515 46.1V34.1C58.515 32.8333 58.215 31.9333 57.615 31.4C57.0817 30.8 56.1817 30.5 54.915 30.5H37.515V20.1H63.015C64.2817 20.1 65.1817 19.8333 65.715 19.3C66.315 18.7 66.615 17.7667 66.615 16.5V4.6C66.615 3.33333 66.315 2.43333 65.715 1.9C65.1817 1.3 64.2817 0.999999 63.015 0.999999H18.415C17.1484 0.999999 16.215 1.3 15.615 1.9C15.0817 2.43333 14.815 3.33333 14.815 4.6V69.4C14.815 70.6667 15.0817 71.6 15.615 72.2C16.215 72.7333 17.1484 73 18.415 73H33.915ZM25.715 64V10H57.615V11H26.715V39.6H49.515V40.6H26.715V64H25.715Z" fill="black"/>
<path d="M110.2 84.9H94.0002C92.4002 84.9 91.2335 84.5333 90.5002 83.8C89.7669 83.0667 89.4002 81.9 89.4002 80.3V32.2H75.7002C74.1002 32.2 72.9335 31.8333 72.2002 31.1C71.4669 30.3667 71.1002 29.2 71.1002 27.6V15.5C71.1002 14.6333 71.2002 13.9 71.4002 13.3C71.6669 12.7 72.0335 12.2 72.5002 11.8L85.4002 0.9C85.7335 0.633333 86.1669 0.433332 86.7002 0.299996C87.3002 0.0999987 87.9335 0 88.6002 0H141.4C143 0 144.167 0.366666 144.9 1.1C145.634 1.83333 146 3 146 4.6V16.7C146 17.5667 145.867 18.3 145.6 18.9C145.4 19.5 145.067 20 144.6 20.4L131.6 31.2C131.334 31.4667 130.9 31.7 130.3 31.9C129.767 32.1 129.167 32.2 128.5 32.2H127.7V69.4C127.7 70.2667 127.567 71 127.3 71.6C127.1 72.2 126.767 72.7 126.3 73.1L113.3 83.9C113.034 84.1667 112.6 84.4 112 84.6C111.467 84.8 110.867 84.9 110.2 84.9ZM123.1 73C124.367 73 125.267 72.7333 125.8 72.2C126.4 71.6 126.7 70.6667 126.7 69.4V20.3H141.4C142.667 20.3 143.567 20.0333 144.1 19.5C144.7 18.9 145 17.9667 145 16.7V4.6C145 3.33333 144.7 2.43333 144.1 1.9C143.567 1.3 142.667 0.999999 141.4 0.999999H88.6002C87.3335 0.999999 86.4002 1.3 85.8002 1.9C85.2669 2.43333 85.0002 3.33333 85.0002 4.6V16.7C85.0002 17.9667 85.2669 18.9 85.8002 19.5C86.4002 20.0333 87.3335 20.3 88.6002 20.3H103.3V69.4C103.3 70.6667 103.567 71.6 104.1 72.2C104.7 72.7333 105.634 73 106.9 73H123.1ZM114.5 64V11H94.0002V10H136V11H115.5V64H114.5Z" fill="black"/>
</svg>
