<svg width="448" height="85" viewBox="0 0 448 85" fill="none" xmlns="http://www.w3.org/2000/svg">
<path d="M20.6 84.9H5.1C3.5 84.9 2.33333 84.5333 1.6 83.8C0.866667 83.0667 0.5 81.9 0.5 80.3V15.5C0.5 14.6333 0.6 13.9 0.8 13.3C1.06667 12.7 1.43333 12.2 1.9 11.8L14.8 0.899998C15.1333 0.633331 15.5667 0.43333 16.1 0.299994C16.7 0.0999968 17.3333 -1.90735e-06 18 -1.90735e-06H62.6C64.2 -1.90735e-06 65.3667 0.366664 66.1 1.1C66.8333 1.83333 67.2 3 67.2 4.6V16.5C67.2 17.3667 67.0667 18.1 66.8 18.7C66.6 19.3 66.2667 19.8 65.8 20.2L54.6 29.5C56.1333 29.5 57.2667 29.8667 58 30.6C58.7333 31.3333 59.1 32.5 59.1 34.1V46.1C59.1 46.9667 58.9667 47.7 58.7 48.3C58.5 48.9 58.1667 49.4 57.7 49.8L44.7 60.6C44.4333 60.8667 44 61.1 43.4 61.3C42.8667 61.5 42.2667 61.6 41.6 61.6H38.1V69.4C38.1 70.2667 37.9667 71 37.7 71.6C37.5 72.2 37.1667 72.7 36.7 73.1L23.7 83.9C23.4333 84.1667 23 84.4 22.4 84.6C21.8667 84.8 21.2667 84.9 20.6 84.9ZM33.5 73C34.7667 73 35.6667 72.7333 36.2 72.2C36.8 71.6 37.1 70.6667 37.1 69.4V49.7H54.5C55.7667 49.7 56.6667 49.4333 57.2 48.9C57.8 48.3 58.1 47.3667 58.1 46.1V34.1C58.1 32.8333 57.8 31.9333 57.2 31.4C56.6667 30.8 55.7667 30.5 54.5 30.5H37.1V20.1H62.6C63.8667 20.1 64.7667 19.8333 65.3 19.3C65.9 18.7 66.2 17.7667 66.2 16.5V4.6C66.2 3.33333 65.9 2.43333 65.3 1.9C64.7667 1.3 63.8667 0.999997 62.6 0.999997H18C16.7333 0.999997 15.8 1.3 15.2 1.9C14.6667 2.43333 14.4 3.33333 14.4 4.6V69.4C14.4 70.6667 14.6667 71.6 15.2 72.2C15.8 72.7333 16.7333 73 18 73H33.5ZM25.3 64V9.99999H57.2V11H26.3V39.6H49.1V40.6H26.3V64H25.3ZM117.877 84.9H75.2773C73.6773 84.9 72.5107 84.5333 71.7773 83.8C71.044 83.0667 70.6773 81.9 70.6773 80.3V68.4C70.6773 67.5333 70.7773 66.8 70.9773 66.2C71.244 65.6 71.6107 65.1 72.0773 64.7L84.1773 54.5V32.2H75.2773C73.6773 32.2 72.5107 31.8333 71.7773 31.1C71.044 30.3667 70.6773 29.2 70.6773 27.6V15.5C70.6773 14.6333 70.7773 13.9 70.9773 13.3C71.244 12.7 71.6107 12.2 72.0773 11.8L84.9773 0.899998C85.3107 0.633331 85.744 0.43333 86.2773 0.299994C86.8773 0.0999968 87.5107 -1.90735e-06 88.1773 -1.90735e-06H130.777C132.377 -1.90735e-06 133.544 0.366664 134.277 1.1C135.011 1.83333 135.377 3 135.377 4.6V16.7C135.377 17.5667 135.244 18.3 134.977 18.9C134.777 19.5 134.444 20 133.977 20.4L122.077 30.4V52.9H130.777C132.377 52.9 133.544 53.2667 134.277 54C135.011 54.7333 135.377 55.9 135.377 57.5V69.4C135.377 70.2667 135.244 71 134.977 71.6C134.777 72.2 134.444 72.7 133.977 73.1L120.977 83.9C120.711 84.1667 120.277 84.4 119.677 84.6C119.144 84.8 118.544 84.9 117.877 84.9ZM88.1773 73H130.777C132.044 73 132.944 72.7333 133.477 72.2C134.077 71.6 134.377 70.6667 134.377 69.4V57.5C134.377 56.2333 134.077 55.3333 133.477 54.8C132.944 54.2 132.044 53.9 130.777 53.9H121.077V20.3H130.777C132.044 20.3 132.944 20.0333 133.477 19.5C134.077 18.9 134.377 17.9667 134.377 16.7V4.6C134.377 3.33333 134.077 2.43333 133.477 1.9C132.944 1.3 132.044 0.999997 130.777 0.999997H88.1773C86.9107 0.999997 85.9773 1.3 85.3773 1.9C84.844 2.43333 84.5773 3.33333 84.5773 4.6V16.7C84.5773 17.9667 84.844 18.9 85.3773 19.5C85.9773 20.0333 86.9107 20.3 88.1773 20.3H98.0773V53.9H88.1773C86.9107 53.9 85.9773 54.2 85.3773 54.8C84.844 55.3333 84.5773 56.2333 84.5773 57.5V69.4C84.5773 70.6667 84.844 71.6 85.3773 72.2C85.9773 72.7333 86.9107 73 88.1773 73ZM125.377 64H93.5773V63H109.077V11H93.5773V9.99999H125.377V11H110.077V63H125.377V64ZM177.785 84.9H161.585C159.985 84.9 158.818 84.5333 158.085 83.8C157.352 83.0667 156.985 81.9 156.985 80.3V32.2H143.285C141.685 32.2 140.518 31.8333 139.785 31.1C139.052 30.3667 138.685 29.2 138.685 27.6V15.5C138.685 14.6333 138.785 13.9 138.985 13.3C139.252 12.7 139.618 12.2 140.085 11.8L152.985 0.899998C153.318 0.633331 153.752 0.43333 154.285 0.299994C154.885 0.0999968 155.518 -1.90735e-06 156.185 -1.90735e-06H208.985C210.585 -1.90735e-06 211.752 0.366664 212.485 1.1C213.218 1.83333 213.585 3 213.585 4.6V16.7C213.585 17.5667 213.452 18.3 213.185 18.9C212.985 19.5 212.652 20 212.185 20.4L199.185 31.2C198.918 31.4667 198.485 31.7 197.885 31.9C197.352 32.1 196.752 32.2 196.085 32.2H195.285V69.4C195.285 70.2667 195.152 71 194.885 71.6C194.685 72.2 194.352 72.7 193.885 73.1L180.885 83.9C180.618 84.1667 180.185 84.4 179.585 84.6C179.052 84.8 178.452 84.9 177.785 84.9ZM190.685 73C191.952 73 192.852 72.7333 193.385 72.2C193.985 71.6 194.285 70.6667 194.285 69.4V20.3H208.985C210.252 20.3 211.152 20.0333 211.685 19.5C212.285 18.9 212.585 17.9667 212.585 16.7V4.6C212.585 3.33333 212.285 2.43333 211.685 1.9C211.152 1.3 210.252 0.999997 208.985 0.999997H156.185C154.918 0.999997 153.985 1.3 153.385 1.9C152.852 2.43333 152.585 3.33333 152.585 4.6V16.7C152.585 17.9667 152.852 18.9 153.385 19.5C153.985 20.0333 154.918 20.3 156.185 20.3H170.885V69.4C170.885 70.6667 171.152 71.6 171.685 72.2C172.285 72.7333 173.218 73 174.485 73H190.685ZM182.085 64V11H161.585V9.99999H203.585V11H183.085V64H182.085ZM253.371 84.9H237.171C235.571 84.9 234.404 84.5333 233.671 83.8C232.938 83.0667 232.571 81.9 232.571 80.3V32.2H218.871C217.271 32.2 216.104 31.8333 215.371 31.1C214.638 30.3667 214.271 29.2 214.271 27.6V15.5C214.271 14.6333 214.371 13.9 214.571 13.3C214.838 12.7 215.204 12.2 215.671 11.8L228.571 0.899998C228.904 0.633331 229.338 0.43333 229.871 0.299994C230.471 0.0999968 231.104 -1.90735e-06 231.771 -1.90735e-06H284.571C286.171 -1.90735e-06 287.338 0.366664 288.071 1.1C288.804 1.83333 289.171 3 289.171 4.6V16.7C289.171 17.5667 289.038 18.3 288.771 18.9C288.571 19.5 288.238 20 287.771 20.4L274.771 31.2C274.504 31.4667 274.071 31.7 273.471 31.9C272.938 32.1 272.338 32.2 271.671 32.2H270.871V69.4C270.871 70.2667 270.738 71 270.471 71.6C270.271 72.2 269.938 72.7 269.471 73.1L256.471 83.9C256.204 84.1667 255.771 84.4 255.171 84.6C254.638 84.8 254.038 84.9 253.371 84.9ZM266.271 73C267.538 73 268.438 72.7333 268.971 72.2C269.571 71.6 269.871 70.6667 269.871 69.4V20.3H284.571C285.838 20.3 286.738 20.0333 287.271 19.5C287.871 18.9 288.171 17.9667 288.171 16.7V4.6C288.171 3.33333 287.871 2.43333 287.271 1.9C286.738 1.3 285.838 0.999997 284.571 0.999997H231.771C230.504 0.999997 229.571 1.3 228.971 1.9C228.438 2.43333 228.171 3.33333 228.171 4.6V16.7C228.171 17.9667 228.438 18.9 228.971 19.5C229.571 20.0333 230.504 20.3 231.771 20.3H246.471V69.4C246.471 70.6667 246.738 71.6 247.271 72.2C247.871 72.7333 248.804 73 250.071 73H266.271ZM257.671 64V11H237.171V9.99999H279.171V11H258.671V64H257.671ZM344.957 84.9H298.557C296.957 84.9 295.79 84.5333 295.057 83.8C294.324 83.0667 293.957 81.9 293.957 80.3V15.5C293.957 14.6333 294.057 13.9 294.257 13.3C294.524 12.7 294.89 12.2 295.357 11.8L308.257 0.899998C308.59 0.633331 309.024 0.43333 309.557 0.299994C310.157 0.0999968 310.79 -1.90735e-06 311.457 -1.90735e-06H357.857C359.457 -1.90735e-06 360.624 0.366664 361.357 1.1C362.09 1.83333 362.457 3 362.457 4.6V16.3C362.457 17.1667 362.324 17.9 362.057 18.5C361.857 19.1 361.524 19.6 361.057 20L352.457 27.1C353.124 27.4333 353.59 27.9333 353.857 28.6C354.19 29.2667 354.357 30.1333 354.357 31.2V41.9C354.357 42.7667 354.224 43.5 353.957 44.1C353.757 44.7 353.424 45.2 352.957 45.6L344.057 53.1H357.857C359.457 53.1 360.624 53.4667 361.357 54.2C362.09 54.9333 362.457 56.1 362.457 57.7V69.4C362.457 70.2667 362.324 71 362.057 71.6C361.857 72.2 361.524 72.7 361.057 73.1L348.057 83.9C347.79 84.1667 347.357 84.4 346.757 84.6C346.224 84.8 345.624 84.9 344.957 84.9ZM357.857 73C359.124 73 360.024 72.7333 360.557 72.2C361.157 71.6 361.457 70.6667 361.457 69.4V57.7C361.457 56.4333 361.157 55.5333 360.557 55C360.024 54.4 359.124 54.1 357.857 54.1H330.257V45.5H349.757C351.024 45.5 351.924 45.2333 352.457 44.7C353.057 44.1 353.357 43.1667 353.357 41.9V31.2C353.357 29.9333 353.057 29.0333 352.457 28.5C351.924 27.9 351.024 27.6 349.757 27.6H330.257V19.9H357.857C359.124 19.9 360.024 19.6333 360.557 19.1C361.157 18.5 361.457 17.5667 361.457 16.3V4.6C361.457 3.33333 361.157 2.43333 360.557 1.9C360.024 1.3 359.124 0.999997 357.857 0.999997H311.457C310.19 0.999997 309.257 1.3 308.657 1.9C308.124 2.43333 307.857 3.33333 307.857 4.6V69.4C307.857 70.6667 308.124 71.6 308.657 72.2C309.257 72.7333 310.19 73 311.457 73H357.857ZM352.457 63V64H318.757V9.99999H352.457V11H319.757V36.1H344.357V37.1H319.757V63H352.457ZM416.848 11H395.048V39.9H416.848C420.981 39.9 423.748 38.9 425.148 36.9C426.548 34.9 427.248 32.0667 427.248 28.4V21.4C427.248 18.3333 426.381 15.8333 424.648 13.9C422.981 11.9667 420.381 11 416.848 11ZM405.848 19H413.348C415.081 19 416.248 19.4667 416.848 20.4C417.448 21.2667 417.748 22.3667 417.748 23.7V27.1C417.748 28.4333 417.448 29.5667 416.848 30.5C416.248 31.3667 415.081 31.8 413.348 31.8H405.848V19ZM395.048 64H394.048V9.99999H416.848C420.714 9.99999 423.581 11.1 425.448 13.3C427.314 15.4333 428.248 18.1333 428.248 21.4V28.3C428.248 31.3667 427.848 33.9 427.048 35.9C426.248 37.8333 424.648 39.1667 422.248 39.9H423.348C427.414 39.9 430.448 40.8333 432.448 42.7C434.448 44.5 435.448 47.1333 435.448 50.6V64H434.448V50.6C434.448 47.3333 433.548 44.9 431.748 43.3C429.948 41.6333 427.148 40.8 423.348 40.8H395.048V64ZM402.248 73C403.514 73 404.414 72.7333 404.948 72.2C405.548 71.6 405.848 70.6667 405.848 69.4V49.8H419.848C421.248 49.8 422.214 50.1667 422.748 50.9C423.348 51.5667 423.648 52.6333 423.648 54.1V69.4C423.648 70.6667 423.914 71.6 424.448 72.2C425.048 72.7333 425.981 73 427.248 73H442.748C444.014 73 444.914 72.7333 445.448 72.2C446.048 71.6 446.348 70.6667 446.348 69.4V48.2C446.348 44 445.214 40.6333 442.948 38.1C440.748 35.5667 437.848 34.1 434.248 33.7C436.314 32.8333 437.748 31.4333 438.548 29.5C439.414 27.5 439.848 25.1 439.848 22.3V17.7C439.848 12.7667 438.414 8.76666 435.548 5.7C432.748 2.56666 427.614 0.999997 420.148 0.999997H386.848C385.581 0.999997 384.648 1.3 384.048 1.9C383.514 2.43333 383.248 3.33333 383.248 4.6V69.4C383.248 70.6667 383.514 71.6 384.048 72.2C384.648 72.7333 385.581 73 386.848 73H402.248ZM405.448 73.1L392.448 83.9C392.181 84.1667 391.748 84.4 391.148 84.6C390.614 84.8 390.014 84.9 389.348 84.9H373.948C372.348 84.9 371.181 84.5333 370.448 83.8C369.714 83.0667 369.348 81.9 369.348 80.3V15.5C369.348 14.6333 369.448 13.9 369.648 13.3C369.914 12.7 370.281 12.2 370.748 11.8L383.648 0.899998C383.981 0.633331 384.414 0.43333 384.948 0.299994C385.548 0.0999968 386.181 -1.90735e-06 386.848 -1.90735e-06H420.148C428.081 -1.90735e-06 433.514 1.66667 436.448 5C439.381 8.26666 440.848 12.5 440.848 17.7V22.3C440.848 24.7667 440.548 26.9333 439.948 28.8C439.348 30.6 438.381 32.0667 437.048 33.2H436.948C440.081 34.0667 442.581 35.8 444.448 38.4C446.381 41 447.348 44.2667 447.348 48.2V69.4C447.348 70.2667 447.214 71 446.948 71.6C446.748 72.2 446.414 72.7 445.948 73.1L432.948 83.9C432.681 84.1667 432.248 84.4 431.648 84.6C431.114 84.8 430.514 84.9 429.848 84.9H414.348C412.748 84.9 411.581 84.5333 410.848 83.8C410.114 83.0667 409.748 81.9 409.748 80.3V65C409.748 63.9333 409.548 63.1333 409.148 62.6C408.748 62 408.014 61.7 406.948 61.7H406.848V69.4C406.848 70.2667 406.714 71 406.448 71.6C406.248 72.2 405.914 72.7 405.448 73.1Z" fill="black"/>
</svg>
