<svg width="114" height="85" viewBox="0 0 114 85" fill="none" xmlns="http://www.w3.org/2000/svg">
<path d="M20.1 84.9H4.6C3 84.9 1.83333 84.5333 1.1 83.8C0.366667 83.0667 0 81.9 0 80.3V15.5C0 14.6333 0.0999999 13.9 0.3 13.3C0.566667 12.7 0.933333 12.2 1.4 11.8L14.3 0.9C14.6333 0.633333 15.0667 0.433332 15.6 0.299996C16.2 0.0999987 16.8333 0 17.5 0H62.1C63.7 0 64.8667 0.366666 65.6 1.1C66.3333 1.83333 66.7 3 66.7 4.6V16.5C66.7 17.3667 66.5667 18.1 66.3 18.7C66.1 19.3 65.7667 19.8 65.3 20.2L54.1 29.5C55.6333 29.5 56.7667 29.8667 57.5 30.6C58.2333 31.3333 58.6 32.5 58.6 34.1V46.1C58.6 46.9667 58.4667 47.7 58.2 48.3C58 48.9 57.6667 49.4 57.2 49.8L44.2 60.6C43.9333 60.8667 43.5 61.1 42.9 61.3C42.3667 61.5 41.7667 61.6 41.1 61.6H37.6V69.4C37.6 70.2667 37.4667 71 37.2 71.6C37 72.2 36.6667 72.7 36.2 73.1L23.2 83.9C22.9333 84.1667 22.5 84.4 21.9 84.6C21.3667 84.8 20.7667 84.9 20.1 84.9ZM33 73C34.2667 73 35.1667 72.7333 35.7 72.2C36.3 71.6 36.6 70.6667 36.6 69.4V49.7H54C55.2667 49.7 56.1667 49.4333 56.7 48.9C57.3 48.3 57.6 47.3667 57.6 46.1V34.1C57.6 32.8333 57.3 31.9333 56.7 31.4C56.1667 30.8 55.2667 30.5 54 30.5H36.6V20.1H62.1C63.3667 20.1 64.2667 19.8333 64.8 19.3C65.4 18.7 65.7 17.7667 65.7 16.5V4.6C65.7 3.33333 65.4 2.43333 64.8 1.9C64.2667 1.3 63.3667 0.999999 62.1 0.999999H17.5C16.2333 0.999999 15.3 1.3 14.7 1.9C14.1667 2.43333 13.9 3.33333 13.9 4.6V69.4C13.9 70.6667 14.1667 71.6 14.7 72.2C15.3 72.7333 16.2333 73 17.5 73H33ZM24.8 64V10H56.7V11H25.8V39.6H48.6V40.6H25.8V64H24.8Z" fill="#F4F4F6"/>
<path d="M95.9001 84.9H75.7001C74.1001 84.9 72.9334 84.5333 72.2001 83.8C71.4668 83.0667 71.1001 81.9 71.1001 80.3V60C71.1001 59.1333 71.2001 58.4 71.4001 57.8C71.6668 57.1333 72.0001 56.6333 72.4001 56.3L85.4001 45.4C85.7334 45.1333 86.1668 44.9333 86.7001 44.8C87.2334 44.6 87.8668 44.5 88.6001 44.5H108.8C110.4 44.5 111.567 44.8667 112.3 45.6C113.033 46.2667 113.4 47.4333 113.4 49.1V69.4C113.4 70.2667 113.267 71 113 71.6C112.8 72.2 112.467 72.7 112 73.1L99.0001 83.9C98.7334 84.1667 98.3001 84.4 97.7001 84.6C97.1668 84.8 96.5668 84.9 95.9001 84.9ZM108.8 73C110.067 73 110.967 72.7333 111.5 72.2C112.1 71.6 112.4 70.6667 112.4 69.4V49.1C112.4 47.8333 112.1 46.9333 111.5 46.4C110.967 45.8 110.067 45.5 108.8 45.5H88.6001C87.3334 45.5 86.4001 45.8 85.8001 46.4C85.2668 46.9333 85.0001 47.8333 85.0001 49.1V69.4C85.0001 70.6667 85.2668 71.6 85.8001 72.2C86.4001 72.7333 87.3334 73 88.6001 73H108.8ZM98.2001 64V54.5H99.2001V64H98.2001Z" fill="#F4F4F6"/>
</svg>
